<?xml version="1.0"?>
<svg xmlns="http://www.w3.org/2000/svg" height="512px" viewBox="-76 0 512 512" width="512px"><g><path d="m120 91c0-33 27-61 60-61s60 28 60 61v30h30v-30c0-49.5-40.5-91-90-91s-90 41.5-90 91v30h30zm0 0" data-original="#000000" class="active-path" data-old_color="#000000" fill="#434343"/><path d="m120 301h120v60h-120zm0 0" data-original="#000000" class="active-path" data-old_color="#000000" fill="#434343"/><path d="m360 121h-90v60h15v30h-60v-30h15v-60h-120v60h15v30h-60v-30h15v-60h-90v391h360zm-90 270h-180v-120h180zm0 0" data-original="#000000" class="active-path" data-old_color="#000000" fill="#434343"/><script xmlns="" class="active-path" style="fill:#434343" data-old_color="#000000"/></g> </svg>
